<?xml version="1.0" encoding="UTF-8"?>
<svg id="_图层_2" data-name="图层 2" xmlns="http://www.w3.org/2000/svg" viewBox="0 0 48 44.61">
  <defs>
    <style>
      .cls-1 {
        fill: #fdfbcf;
      }

      .cls-2 {
        fill: #8cc4ae;
      }

      .cls-3 {
        fill: #214f63;
      }

      .cls-4 {
        fill: #2b96a0;
      }

      .cls-5 {
        fill: #80c094;
      }

      .cls-6 {
        fill: #74b7bd;
      }

      .cls-7 {
        fill: #274e58;
      }

      .cls-8 {
        fill: #478b95;
        fill-rule: evenodd;
      }
    </style>
  </defs>
  <g id="_图层_1-2" data-name="图层 1">
    <g>
      <path class="cls-8" d="M14.83,30.58l5.48,2.13c.29,.2,.33,.44,.27,.81l-1.07,7.04s-.55-.62-.55-.62v-.15c0-.12-.18-.65-.34-1.09-.04-.12-.08-.24-.11-.33,0,0-.11-.24-.26-.55-.01-.03-.03-.06-.05-.1l-.02-.03h0s0,0,0,0c0,0,0,0,0,0,0,0,0,0,0,0,0,0,0,0,0,0s0,0,0,0h0c-.14-.31-.27-.61-.37-.84-.1-.23-.17-.38-.18-.38-.04-.04-.06-.23-.09-.43-.02-.18-.04-.36-.08-.43-.04-.12-.08-.13-.11-.14-.03,0-.04-.01-.04-.08-.04-.04-.06-.08-.08-.11-.02-.04-.04-.08-.08-.11-.02-.02-.05-.05-.07-.09-.06-.07-.13-.16-.23-.22,0-.05-.03-.1-.08-.15,0-.05-.03-.06-.07-.09-.02-.02-.05-.03-.08-.06,0,0,0-.08-.08-.08l-.23-.23-.15-.22s-.06-.03-.09-.07c-.02-.02-.03-.05-.06-.08,0,0-.07,0-.15-.08l-.08-.15s-.08,0-.08-.08h-.08l-.08-.08-.08-.08v-.08s-.06-.03-.09-.07c-.01-.02-.03-.05-.06-.08,0-.05-.03-.08-.08-.08v-.23l-.08-.08c0-.15,0-.22-.08-.3-.08-.35-.26-.65-.44-.93-.16-.26-.32-.51-.39-.8,0,0-.01-.03-.02-.06v-.03s-.01,0-.01,0l-.14-.37c.07-.01,.63,.24,.7,.29Zm8.22-12.82l.49,.57h0s0,0,0,0l.49-.57h.63c.12,0,.25,.02,.36,.04,.09,.02,.17,.03,.24,.03,.15,.07,.22,.07,.3,.07h.08s.08,.02,.11,.04c.04,.02,.08,.04,.11,.04h.3c.15,.08,.3,.15,.53,.15h.08c0,.05,.03,.08,.08,.08h.15c.05,.05,.1,.08,.15,.08h.15l.08,.08h.3c.08,.08,.15,.08,.15,.08l.38,.08s.18,.03,.35,.07l3.1,4.65,1.54,5.72c-.12,.03-.23,.09-.36,.16l-6.77,2.64h0c-.72,.44-.9,.77-.75,1.64l.86,5.91,.46,2.86-.55,1.1s-1.56,.83-1.58,.85c-.05,.04-.9,.51-.9,.51,0,0-.83-.45-.81-.44,0,0,0,0,0,0-.13-.09-.81-.45-.99-.54h-.01c-.38-.2-.68-.36-.7-.38h0s-.61-1.1-.61-1.1l.46-2.86,.86-5.91c.14-.86-.04-1.19-.76-1.64l-6.63-2.58,1.1-4.62,.21-.85,.1-.39,3.07-4.79s.03,0,.03,0l.38-.08s.08,0,.15-.08h.3l.08-.08h.15c.05,0,.1-.03,.15-.08h.15c.05,0,.08-.03,.08-.08h.08c.23,0,.38-.08,.53-.15h.3s.08-.02,.11-.04c.04-.02,.08-.04,.11-.04h.08c.08,0,.15,0,.3-.07,.07,0,.15-.02,.24-.03,.11-.02,.23-.04,.36-.04h.63Zm3.71,14.95l5.48-2.13h0c.07-.04,.63-.3,.7-.29l-.14,.38v.03s-.01,0-.01,0c0,.01-.01,.03-.02,.05-.07,.29-.23,.54-.39,.8-.18,.28-.36,.58-.44,.93-.08,.08-.08,.15-.08,.3l-.08,.08v.23c-.05,0-.08,.03-.08,.08-.03,.03-.04,.06-.06,.08-.02,.04-.04,.07-.09,.07v.08l-.08,.08-.08,.08h-.08c0,.08-.08,.08-.08,.08l-.08,.15c-.08,.08-.15,.08-.15,.08-.03,.03-.05,.06-.06,.08-.02,.04-.04,.07-.09,.07l-.15,.22-.23,.23c-.08,0-.08,.08-.08,.08-.03,.03-.06,.05-.08,.06-.04,.02-.07,.04-.07,.09-.05,.05-.08,.1-.08,.15-.11,.05-.17,.14-.23,.22-.02,.03-.05,.06-.07,.09-.04,.04-.06,.08-.08,.11-.02,.04-.04,.08-.08,.11,0,.07-.02,.08-.04,.08-.03,0-.07,.02-.11,.14-.04,.07-.06,.25-.08,.43-.02,.19-.05,.38-.09,.42-.01,0-.08,.16-.18,.4-.1,.23-.23,.53-.36,.82,0,0,0,0,0,0,0,0,0,0,0,0h0s0,0,0,0c0,0,0,0,0,0,0,0,0,0,0,0,0,0,0,0,0,0,0,0,0,0,0,0,0,0,0,0,0,0,0,0,0,0,0,0l-.02,.03s-.03,.06-.05,.1c-.15,.31-.26,.55-.26,.55-.03,.1-.07,.21-.11,.33-.15,.44-.34,.98-.34,1.09v.15l-.55,.62-1.07-7.04c-.06-.38-.02-.61,.27-.81Z"/>
      <path class="cls-7" d="M26.6,42.15l-.55,1.1-2.48,1.35-2.51-1.36-.61-1.09,.47-2.96c.52,.16,1.34,.6,1.48,1.15,0,0,1.24,.56,2.17,.08l1.14-.97,.41-.25,.37,2.35,.1,.61h0Z"/>
      <path class="cls-5" d="M17.23,18.99l-1.98,3.09c.16-.81,.33-1.59,.53-2.01,.17-.36,.29-.65,.4-.9,.13-.31,.26-.56,.48-.83,0,0,1.02-.25,1.09-.25v-.07h.07s.03-.02,.04-.03l-.64,.99Z"/>
      <path class="cls-2" d="M31.64,23.23c-.97,.76-3.36,3.11-8.12,3.36-.08,0,.1,0,0,0-.03,0-.05,0-.08,0-4.59-.45-7.66-3.29-7.66-3.29l3.07-4.79s.93-.47,1.94-.7,2.31-.24,2.31-.24l.51,.6,.44-.6s1.31,.05,2.45,.32c1.06,.24,2.02,.69,2.03,.7l3.1,4.65Z"/>
      <path class="cls-1" d="M27.63,19.16l-.2,1.58-2.2,1.62-.8-1.54-.81,1.46-.81-1.46-.8,1.54-2.12-1.58-.19-1.58-1.08,2.08,5.01,4.09,5.09-4.13-1.08-2.08Z"/>
      <path class="cls-7" d="M18.24,32.88l-3.73-1.59c.29,.5,.6,1.16,.61,1.21,.07,.07,.08,.16,.08,.3,.1,.07,.08,.08,.08,.08v.23s.06,.04,.06,.11c.05,0,.07,.02,.07,.07,.07,.1,.07,.18,.14,.18v.07l.1,.1,.07,.07h.07c0,.07,.1,.07,.1,.07l.07,.18c.07,.07,.14,.07,.14,.07,.1,.07,.1,.14,.18,.14l.14,.25,.25,.25c.07,0,.07,.07,.07,.07,.1,.1,.18,.1,.18,.18,.05,.05,.07,.09,.07,.14,.18,.1,.25,.25,.32,.32,.1,.1,.1,.18,.18,.25,0,.18,0,.42,.07,.64,.07,.18,.07,.32,.18,.42l.94,2.18c.07,.18,.22,.75,.29,.96l.5-5.14c.09-.88-.4-1.44-1.22-1.78h0Z"/>
      <path class="cls-7" d="M27.6,34.7l.5,5.14c.07-.21,.22-.78,.29-.96l.94-2.18c.11-.27,.1-.25,.18-.42,.07-.21,.07-.46,.07-.64,.07-.07,.07-.14,.18-.25,.07-.07,.14-.21,.32-.32,0-.05,.02-.09,.07-.14,0-.07,.07-.07,.18-.18,0,0,0-.07,.07-.07l.25-.25,.14-.25c.07,0,.07-.07,.18-.14,0,0,.07,0,.14-.07l.07-.18s.1,0,.1-.07h.07l.07-.07,.1-.1v-.07c.07,0,.07-.07,.14-.18,0-.05,.02-.07,.07-.07,0-.07,.06-.11,.06-.11v-.23s-.03,0,.08-.08c0-.14,0-.23,.08-.3,.01-.06,.32-.72,.61-1.21l-3.73,1.59c-.81,.34-1.31,.9-1.22,1.78h0Z"/>
      <path class="cls-6" d="M21.74,33.58c-.09,.55-.96,6.4-.95,6.41,.41,.09,1.3,.74,1.44,.96,.27,.42,1.96,.56,2.48,.23,.41-.27,1.18-.78,1.58-1.03,0,0-1.01-6.93-1.02-6.98,0,0-.43-1.84,1.15-2.38-1.8,.77-3.85,.76-5.64-.04l-.21-.08s1.56,.65,1.18,2.91Z"/>
      <path class="cls-4" d="M17.94,17.88l-.07,.11-.64,.99-1.98,3.09-.53,.82-.03,.13-.63,2.63-.7,2.96-7.15-3.28L1.34,21.08,0,14.98,6.21,0l-1.71,14.07,.12,1.52,7.19,3.66,6.12-1.37Z"/>
      <path class="cls-3" d="M11.15,22.89l2.64-.35-.53,2.27-.58,2.37-5.96-2.67-4.51-3.96-1.18-5.44,6.45,6.48,3.67,1.3Z"/>
      <path class="cls-4" d="M48,14.98l-1.34,6.09-4.87,4.26-7.54,3.02-1.14-4.79-.32-.5-2.6-4.05-.65-1.02,.96,.18,5.68,1.06,7.19-3.66,.12-1.52-1.71-14.07,6.21,14.98Z"/>
      <path class="cls-3" d="M36.79,22.89l-3.36-.68,.62,.98,.88,3.83,6.38-2.54,4.41-3.93,1.18-5.44-6.45,6.48-3.67,1.3Z"/>
    </g>
  </g>
</svg>